<svg width="1041" height="780" viewBox="-4 -4 1041 780" fill="none" xmlns="http://www.w3.org/2000/svg">
<path d="M598.7 490.6C605.3 489.3 612.1 486.1 627 488.7C663.1 496.8 695 509.5 727.7 519.1C743.9 524.1 761.1 528.7 777.8 533.7C784.5 535.7 783.6 537.2 785.5 538C790.4 540 794.1 539.2 797.8 540.4C797.9 540.5 798 540.5 798.1 540.5C816.3 547.2 833.6 552.8 852.5 563.8C871 575.9 859 574.7 864.1 579.6C864.7 580.2 865.3 580.7 865.7 581.2C871.8 586.5 868.3 577.2 872.4 578.2C882.9 585.1 896.4 592.3 909.2 599.8C905.7 598.7 902.2 597.6 898.7 596.4C904.4 599.5 912.2 604.6 901.7 601.2C903.7 602.8 905.4 604.3 907.4 605.8C909.1 603.9 919.4 609 921 608.3C922.6 607.5 916.7 604.8 916.8 604.7C917.5 603.8 926.2 608.9 933.2 613.3C937.6 616.1 941.4 618.6 942 619.1C946.1 621.9 940.8 622.5 944.7 624.3C951.3 627.6 949.9 619.9 954.7 631.7C959.4 631.3 959 632.6 963.2 635.1C963.8 635.4 964.1 633.8 964.3 633.9C965.1 634.2 965.7 634.4 966.2 634.6C970.4 636.6 966.5 636.3 965.3 636.3C965.1 636.3 965 636.3 965 636.4C965 636.5 965 636.7 965 636.9C965.8 639.4 973.3 643 974.5 644.4C986.5 656.3 993.1 666.9 1001 678.4C1005.2 684.4 1007 691.4 1008.9 698C1009.4 699.7 1010.4 702.8 1011.9 705.7C1012 705.7 1012 706 1012.1 706.1C1014.3 711.9 1016.5 718.3 1017.1 721.2C1018 725.8 1015.5 723.9 1015.3 726.5C1020.8 729 1022.3 732.4 1022 741.7C1026.2 743.8 1023.5 744.2 1026 750C1027 752.3 1029.2 755.3 1030.9 758.5C1031 758.6 1031.1 759.1 1031.1 759.2C1032.8 764 1032.8 768.3 1031.1 771.1C1031.3 765.5 1030.4 764.8 1028.5 759.8C1028.5 759.7 1028.4 759.5 1028.4 759.4C1028 758.6 1027.5 757.8 1026.9 756.7C1025.8 754.5 1018.2 730 1015.5 732.8C1014.1 734.2 1018.1 741.9 1017.9 742.3C1016.7 744.7 1013 740.9 1012.6 736.6C1013.3 737.5 1014 738.6 1014.7 739.5C1014.2 729.8 1007.4 738.6 1012.9 729.4C1013.6 728.3 1014.7 728.3 1015.3 726.6C1014.8 726.5 1014.2 728.5 1013.6 727.1C1013 725.6 1014.1 722.2 1012.3 722.2C1009.7 722.3 1012.6 728.3 1012.6 728.8C1012.6 728.8 1012.6 728.8 1012.6 728.8C1012.6 733.3 1009.8 724.7 1009.5 724.3C1007.2 722.1 1006.6 724.2 1004.2 720.6C1002.8 718.5 1001.4 712.6 1000.5 710.7C1000.4 710.4 1000.3 710.3 1000.2 710.2L1000.5 710.9C1000.2 710.6 1000.1 710.8 1000 711.1L999.7 710.4C999.4 710.8 999.2 711.7 998.9 711C998.8 710.9 998.8 710.8 998.7 710.7L999 711.5C998.2 709.9 998.2 707.8 997.3 706.2C996.9 705.4 995.7 705.9 995.5 705.5C993.7 701.6 997.1 703.4 995.9 700C995.1 697.6 990.4 692.5 991.3 696.9C990.3 694.9 989.4 693.3 988.4 692C988.6 693.1 988.8 694.2 988.8 695.5C988 692.1 985.6 692.2 984.6 691.4C984.5 691.3 984.4 691.2 984.3 691.1C982.4 689 982.9 685.3 979.8 683.7C974.8 681.2 980.8 687.7 984 691.8C984.5 692.3 984.8 692.8 984.8 693.1C984.8 693.5 982.3 693.5 982.2 693.4C982.1 693.4 982.1 693.4 982.1 693.4C980.7 691.8 980.3 689.2 979.3 688C975.4 683.8 971.7 682.5 967.8 679.1C962 673.9 955.1 668.8 949.6 666.5C937.9 661.1 927 655.4 917.8 650.8C916.5 650.1 915.3 649.4 914.3 648.6C910.5 646 908.4 643.4 906.2 642.3C899.7 639 898 640.4 892.3 637.6C883.8 633.4 872.4 625.8 865.1 621.5C860 618.6 854.2 617.4 852.8 616.6C850.2 615.2 847.5 613.6 844.8 611.8C830.1 601.3 816.2 595.9 802.4 590.9C795.4 588.5 792.6 585.4 791.1 585C786.6 583.7 785.8 584.4 784 584.4C783.2 584.3 782.3 584.2 780.7 583.6C777.9 582.7 777.9 580.9 777.5 580.7C774.4 579.2 773.1 581.2 770.4 580.5C755.1 576.5 740.5 571.2 724.9 566.5C723.8 566.1 724.1 565.2 723.4 565C720.1 564.3 721.2 566.3 717.8 565.4C716.5 565.1 715.2 564.7 713.8 564.3C708.2 562.7 702.6 560.7 696.8 558.7C696.1 558.5 696.2 557.1 694.6 556.6C692.9 556.1 691.3 556.9 688.8 556C682.2 553.7 676.1 550.2 669.2 547.8C668 547.4 666.1 548.4 664.4 547.8C659 546 651.6 542 647.1 540.6C636.6 537.2 627 534.9 617.1 533C618.9 533.3 616.2 533.1 613 534C610.4 534.5 607.1 533.9 605.4 534.4C601.4 535.4 604.8 535.9 600.6 537C588.2 540.3 572.2 544.8 553.4 540.5C534.3 536.4 519.6 521.6 511.8 508.3C505.3 497.9 500.9 485.2 498.8 474.3C498.5 472.9 498.2 471.6 497.9 470.5C497.7 469.5 497.4 468.5 497.5 468.9C493.2 456.6 489.1 447.2 485.1 438.8C483 434.5 484.2 432.8 482.5 429.8C480 425.6 477.7 425 475 422.3C474.2 421.4 473.3 420.5 472.4 419.2C469 414.5 467.2 407.6 463.6 402.6C460.1 397.7 456.6 396.6 452.4 391.1C449 386.5 445.3 379.2 441.6 374.3C433.8 363.8 425.6 352.3 418.9 345.9C398.3 325.8 377.6 305.5 357.3 284.9C344.4 270.7 340.6 266 330.2 260.8C326.4 259 322.1 257.4 317.2 256.2C310.5 254.5 303.7 253 296.2 251.2C292.4 250.2 288.6 249.3 283.6 247.6C281.1 246.7 278.3 245.7 274.4 243.4C270.8 241.3 264.3 236.4 261.6 228.2C261.4 227.5 261.2 226.8 261 226.2C260.6 224.2 263.7 226.3 261.1 220.4C259.7 217.3 256.3 213.4 253.5 206.4C248.6 193.8 243.6 182.2 237.1 170.4C224.7 147.2 214.8 127.3 198.4 112.6C192.1 106.8 185.7 101.3 179.1 96.2C170.1 89.2 159.7 82.2 151 77.8C121.9 64.1 88.8 52.7 60.3 40.2C37.6 30.7 20.8 19.6 1.6 11.8C-1.3 10.6 0.3 5 2.1 3.4C3.8 4.5 5.2 5.9 6.9 7.3C9.3 0.4 9 2 16.9 3.7C21.7 4.9 18.3 1.2 21.1 0.8C24.8 0.1 42.1 1.6 37.5 5.2C38.8 4.7 39.9 4.3 41.1 3.8C51.4 6.5 61.4 9.3 71.4 12C72.8 12.4 74.3 12.8 75.7 13.2C77.7 13.7 78.3 12.4 80.4 13C85.9 14.6 89.7 17.2 95.1 19.4C98 20.6 99.1 19.3 102.9 21.1C106.6 22.9 105.6 24.9 111.8 25C109.6 20.8 123.7 29.7 129.1 32.1C129.9 32.4 137.3 33.2 140.5 35.1C143.7 37 148.1 41.1 153.6 43C156.3 43.9 158.7 42.9 161.4 44.2C163.3 45.1 164.6 47.9 166.9 49.4C167.1 49.5 167.2 49.6 167.4 49.7C170.4 51.2 175.3 53 176.2 53.6C179.4 55.7 175.2 54.3 177.3 55.9C187.7 63.4 198.5 72.9 208.4 80.1C209.6 81 209 78.5 209.2 78.6C218.2 83.9 212.7 81.8 214 84.6C214.4 85.5 216.3 87.5 218.8 89.7C224.1 94.3 231 100.5 232.4 99.5C230.4 102.1 235.3 104 236.2 104.9C239.4 108.3 236.7 109.3 240.1 112.3C241.3 113.4 240.9 109.7 241.9 111.2C244.5 114.8 244.3 119.7 247.1 124.6C247.8 125.8 249.2 125.5 250.4 127.6C251.7 129.6 255.5 139.1 255.5 133.7C256.7 140.1 258.3 140.5 261.7 146.5C262.5 148 261.7 151.1 264.1 153.8C264.3 153.9 264.4 154 264.6 154.1C265.6 154.5 266.9 154 267.8 155.4C270.1 159.3 270.2 164.1 272.7 169.3C277.4 178.9 283.1 189 286.3 199.4C287.2 202.2 285 202.2 286.4 206.2C286.6 206.8 290 211 290.8 213.7C291 214.3 291.3 215.6 291.7 217.1C291.3 216.4 290.6 215.7 290.2 215.5C289.8 215.2 289.7 215.4 289.8 215.5C290.1 215.9 291 216.5 291.4 216.7C293.5 217.5 294.6 215.7 295.8 216.4C299.8 218.5 295.7 220.7 301.9 217.8C303.3 220.4 306.6 220.8 307.2 223.8C309.7 221.2 311.6 224.6 315.6 224.4C319.6 224.2 324.1 219.1 323.5 225.5C323.8 225.5 324.1 225.5 324.5 225.5C327.4 225.3 334 226.2 335.3 226.5C339.3 227.6 336.6 228.6 339.6 229.4C340.1 229.6 340.1 228.2 343.3 229.7C345.6 230.3 360.8 239.5 361.3 240.6C369.3 249.6 355.6 237.4 352.4 237.6C352.2 237.1 352 236.6 351.8 236C347.5 233 348.9 236.8 350.5 238.5C352.1 240.2 356.4 241.5 357.4 243.4C357.8 244.3 355.4 246.6 353.4 244.7C355.2 247.2 351.4 245.8 351.8 247.2C352.4 248.6 361.5 256.9 362.7 255.8C361.1 254.1 358.9 252.2 357.1 250.6C356.3 245.9 371.9 244.7 374.9 254.7C376.8 261.1 368.8 256.1 378.7 263.5C379.1 263.7 379.5 264 380 264.4C379.6 264 379.3 263.6 379 263.2C378 262 377.1 260.9 376.2 259.6C377.7 257.9 378 261.9 379.6 262.6C379.6 262.6 379.7 262.6 379.7 262.6C379.9 262.7 379.9 262.5 379.9 262.3C379.9 261.4 379.1 259.1 381.4 260.7C381.5 260.8 381.6 260.8 381.6 260.9C382 266 386.5 265.7 391.1 270.3C389.4 269.4 387.7 268.5 386 267.7C392.1 277.2 373.5 259.7 387.6 275.8C385.7 274.1 383.9 272.2 382 270.5C382 272.3 378 273.4 378.3 274.8C378.9 278.3 382.8 280.5 385.2 283.1C386.3 284.3 384.9 284.3 385 284.4C386.4 286 387.1 284.6 388.5 285.9C390.3 287.5 394.1 293.3 395 294C397.3 295.7 396 290.4 396.3 290.4C398.6 290.7 400.4 294.2 401.5 292.8C394.3 287.3 377.1 267.8 395.8 282.3C393.3 275.7 397.4 274.2 404.2 280.6C409.8 285.8 405.2 283.4 406.8 287.5C407 288 413.6 295.9 414.9 295.4C412.6 297.2 413.1 301.3 409.5 301.8C408.9 301.9 406.1 298.8 405.4 301.5C405.1 302.9 404.7 306.2 403.4 307C404.8 306.9 406.3 306.7 407.7 306.6C412.3 310.8 412.2 312.3 413.2 316.1C413.7 315.4 413.9 310.7 416.6 314.9C416.7 315.1 416 316.2 417.3 318.3C419.9 322.7 420.4 323.8 415.1 323.6C422.4 328.5 422.6 332.4 427.4 337.5C428.2 338.4 429.1 339.3 430.3 340.3C431.3 338.2 431.2 336.6 430 335C428.5 333.1 425.7 331 421.7 327.7C422.2 326.6 422.9 325.7 423.4 324.6C429.9 334.5 427 331.6 431.4 333.6C431.8 333.8 432.4 334.1 433 334.4C434.6 335.2 439.9 342.6 440.5 338.3C440.6 337.2 436.7 332.9 438 332.6C438.3 332.5 443.4 337.7 443.5 338.4C445.3 347 434.9 337.1 448.8 353.9C449.1 354.4 450.4 353.7 451.2 354.6C452.8 356.2 451.5 357.1 453 358.5C454.4 359.9 457.7 361 457.8 364.5C457.9 371 449 361.7 447.2 356C442.2 356.7 465.3 390.3 467 392.2C474.7 400.5 463.4 385.7 464 384.2C464.2 383.6 470 379.8 463.7 378.5C461.8 378.1 463.6 383.9 461.1 381.5C458.5 379 461 379 460.9 378.7C460.9 377.7 458.1 375.1 458.1 374.6C457.6 366.1 463.5 362.9 460.9 376.4C465.1 378.6 462.5 368.6 466.7 372.1C471.9 376.4 471.9 382 472.2 382.7C476.3 391.6 473.8 379.8 479.2 390.4C482.2 396.2 471.2 384 479.8 396.2C487.1 406.4 484.6 399.9 488.1 398.6C489 398.3 493.7 403.3 488.1 395.8C487.2 396.2 485.9 396.4 484.8 396.4C484.1 394.2 485.9 388.3 485.3 387.2C482.7 381.9 480.8 383.5 481.2 379C480 382.9 479.2 378.4 477.8 377.5C472.6 374.3 476 380.9 471.5 368.6C471.2 370.8 470.8 372.9 470.5 375.1C469.6 373.8 468.7 372.6 467.8 371.4C469.2 367.6 464.2 361.2 471.1 365.3C466.9 357.6 464.2 355 461 354.9C460.4 354.8 459.5 353.9 458.5 352.6C458.1 353.3 456.5 354.9 456.1 354.8C452.9 354.4 454.3 349.2 456.3 349.3C455.7 348.4 455.3 347.6 455.1 347.3C454.2 345.6 457.6 347.8 457.1 346.3C456.9 345.8 453.4 341.4 453.8 341.1C456.3 338.3 460 347.3 450.3 331.1C447.4 332.9 453.2 339.3 449 339.7C444.6 340.2 445.7 333.2 441.3 335.4C441.7 334.6 442.1 334.1 442.5 333.2C438.7 330.7 438.1 328.8 438 327.1C438 326 438.2 325 437.8 324.1C436 319.8 421.9 305.9 432 321C429.9 319.4 427.9 317.6 425.9 316C430.5 310.5 429.6 313.6 421.6 304C419.8 301.9 421.4 299 416.9 299.7C419.7 297.4 412.4 293.2 412.2 292.4C410.8 286.9 426.4 296.9 423.4 303.1C427.4 303.5 425 305.8 427.7 307.9C431.6 311 432.6 311 435 316.9C441.5 318.6 420.2 299.8 435.5 308.8C438.1 310.3 442.2 313.5 447.5 317.9C469 338 492.6 373.2 511 397.8C518.5 408.2 523.8 417.7 526.6 423.3C532.8 435.4 536.4 447 539.3 454.9C541.5 462 541.6 463.9 542.4 466.7C543 469.3 543.7 471.4 544.4 473.5C545.9 477.5 547.7 481.2 550 484.8C554 490.9 557.9 494.6 562 496C562.7 496.3 565.6 497.1 569.7 497.3C573.7 497.6 578.5 497.5 576.5 499.9C576 500.7 567 503.1 575.3 505.4C573.4 503.8 578 501.9 578.4 501.6C587.5 495 579.8 495.8 598.7 490.6ZM654.5 533.3C632.1 525.3 648 533.1 641.5 537.4C644.4 538.2 647.2 539.1 650.1 540.1C649.5 539.5 648.8 538.9 648.2 538.3C648.2 538.3 648.2 538.3 648.2 538.3C650.3 536.6 652.4 534.9 654.5 533.3ZM988.8 701.7C987.8 701.1 986.8 700.5 985.8 700C985.2 697.4 984.6 695.5 984 694C984.6 693.9 985.2 693.8 985.7 693.8C986.7 695.6 987.7 698.2 988.8 701.7ZM444.6 353.8C443.7 348.9 440.8 351.5 438.7 345.7C436.9 348.1 435.1 350.4 433.2 352.7C436.2 356 437.6 356.1 439.9 360.5C440.3 359.5 440.7 358.4 441.2 357.5C440.5 356.9 439.8 356.4 439.2 355.8C440.6 353.3 445.5 359.4 444.6 353.8C444.6 353.8 444.6 353.8 444.6 353.8ZM413.9 320.9C412.5 318.9 406.7 311 404.9 310.9C398.9 310.6 419.9 328.1 403.2 316.5C402.8 316.9 402.4 317.3 402 317.6C404.4 320.4 406.9 323.1 409.3 325.8C410.8 324.1 412.5 322.6 413.9 320.9ZM573.8 532.7C571.6 532.7 565.1 533.3 559.6 533.2C554.2 533.2 549.8 532.8 553.3 535.2C555.6 536.8 566.7 534.4 570.1 534.2C572.5 534.2 570 536.4 574.7 535.4C574.4 534.5 574.2 533.5 573.8 532.7C573.8 532.7 573.8 532.7 573.8 532.7ZM579.9 520.1C576.1 521.1 572.2 521.9 568.2 522.3C571.2 524.7 576.9 522.6 577.7 525.7C576.6 526.1 575.5 526.5 574.3 526.8C573.4 526.2 572.5 525.6 571.6 524.9C568.1 526.7 570.2 527.8 563.3 526.9C566.9 531.9 569.1 535.2 580.2 528.7C578.3 531.6 582.1 540 587.5 532.5C588.5 531.2 583.3 531.5 583.2 531.3C582 529.2 584.5 527.2 583.3 525.3C582.7 524.4 579.8 524.9 579.2 523.6C578.9 523 581.3 520.7 579.9 520.1ZM590.1 529.7C589.1 531.4 594.3 533.5 597.7 531.9C603 529.4 593.5 528.8 590.1 529.7ZM988.8 701.7C988.8 701.7 988.8 701.7 988.8 701.7C988.8 701.7 988.8 701.7 988.8 701.7C988.8 701.7 988.8 701.7 988.8 701.7ZM421.6 330.9C418.8 329.7 415.9 326.5 414.8 328.1C414.1 326.8 413.3 325.6 412.6 324.3C412.2 324.7 411.9 325.2 411.5 325.6C414.2 328.8 416.9 332 419.5 335.2C420.2 333.8 421 332.4 421.6 330.9ZM390.3 297.6C386.7 293.7 388.1 298.6 386.4 298.6C384.7 298.7 382.1 294.7 381.2 296.3C383.4 298.5 385.6 300.9 387.8 303.2C388.6 301.2 389.5 299.4 390.3 297.5C390.3 297.6 390.3 297.6 390.3 297.6ZM748.8 564.5C745.5 563 747.4 561.6 740 561.9C740 561.9 740 561.9 740 561.9C746.1 565.2 754.1 568.8 761.6 569.3C757.8 566.2 754 566.8 748.8 564.5ZM447 367.2C449.2 367.5 446.2 361 444.2 360.7C440.9 360 443.8 366.6 447 367.2ZM884.6 607.8C891.6 606.1 884.7 596.8 874.4 593.8C873.5 593.5 878.8 598.1 876.6 598C876.3 597.9 873.1 596.1 872 596.2C870.8 596.3 871 598.1 869.3 597.9C866.4 597.6 862.2 592.7 859.8 592.8C859.4 592.8 861.5 596.6 861.7 596.8C864.5 599.9 869.1 599.4 869.6 599.7C872.4 601.1 871 602.7 871.5 603.5C872.3 605.1 875.1 605.5 875.3 605.6C878.6 609.5 869.2 603.9 867.6 603.8C863.1 603.6 865.4 607.3 856.3 603.1C855.9 602.9 853.5 601.4 852.3 600.8C851.6 600.5 851.2 600.5 851.9 601.4C852.5 602.2 854 603.8 856.8 606.1C854 605 852 604.2 850.4 603.6C846.1 601.9 846.6 602.9 849.4 605C855.4 609.7 869.6 616 872.1 616.6C874.2 617.1 872.4 613.9 873.9 613.7C877.3 613.1 881.7 615 882.6 612.2C884.6 606.4 877.2 607.1 873.9 604.2C874.9 603.2 875.7 602.2 877 601.4C875.1 602.4 884.1 608 884.6 607.8C884.6 607.8 884.6 607.8 884.6 607.8ZM823.4 581.3C818.8 577.4 817.7 581.2 813.5 577.2C807.9 578.8 816.7 581.8 817.6 582.4C821.8 585 820.2 588.4 825 589.3C824.4 586.6 824.1 584 823.4 581.3ZM866.9 608.2C862.3 607.9 868.8 611.5 868.9 611.9C870 617.1 850.7 605.4 866.9 608.2ZM548.6 520.9C546.6 519.8 547.1 522.1 545 521.6C542.7 521.2 538.1 515.8 537.6 516.7C536.6 517.7 546.4 528.3 534.6 520.5C534.6 521.3 534.1 521.6 533.9 522.2C537 524.7 540.5 527 544.2 528.8C543 526.1 542 523.3 541.5 520.8C543.9 520.6 544 522.8 544.1 522.8C544.1 522.8 544.1 522.8 544.1 522.8C547.6 524.7 553.1 523.1 548.6 520.9ZM701.4 546.8C703.4 542.6 697.2 546.1 695.2 546C693.1 546 691.1 543.5 691.4 545.7C694 548 701.2 547.3 701.4 546.8C701.4 546.8 701.4 546.8 701.4 546.8ZM793.5 570.6C790.8 570.3 789.7 570.6 788.4 570.5C787.3 570.3 786 569.9 783.5 568.4C783.4 569.6 783.3 570.8 783.2 571.9C785.4 572.6 786.7 572.2 787.9 571.9C789.4 571.6 790.7 571.5 793.3 573C794.1 573.5 791.4 575.4 795.6 575.9C794.9 574.2 794.2 572.3 793.5 570.6ZM768.9 567.5C774.4 568.9 781.3 561.4 770 562.5C768.4 562.7 764.7 566.5 768.9 567.5ZM602.9 518.3C593.4 520.6 604.5 519.1 607.2 519.9C585.8 526.9 610 518.5 612.3 523.1C614.3 521.3 618.3 517.9 613.3 517.7C611.1 517.7 612.2 518.9 612 519C608 519.4 608 517.1 602.9 518.3ZM832.6 585.2C832.3 585.1 832.1 586.8 830.9 586.6C829.8 586.4 828 584.3 827.3 585.1C826.7 585.9 830.9 588.7 832.6 588.7C834.2 588.8 835.7 586.1 832.6 585.2ZM799.8 568.3C794.8 567.8 800.5 575.8 801.5 576.1C810.3 578.8 799 569.9 799.8 568.3ZM625.6 506.9C624.6 506.9 623.7 507 622.9 507.1C615.9 508.1 618.8 511 621.4 513.9C623 515.5 625.1 517.2 627.1 518.7C628.2 518.3 629.3 517.9 630.3 517.6C625.2 520.2 617 522 634.1 522.9C625.4 519.7 633.1 520.7 633.2 520.5C636.1 514 621.7 513.8 625.6 506.9C625.6 506.9 625.6 506.9 625.6 506.9ZM844.8 594.1C846.8 595.4 850.5 597.6 853.6 598.9C856.9 600.3 859.1 600.4 857.2 597.4C856.5 597.2 855.8 597 855.1 596.8C851.5 595.8 848.1 594.9 844.8 594.1ZM502.1 413.1C501.6 410.4 500.6 408.2 499.2 405.9C498.2 404.3 497.1 402.7 495.9 401C496.4 406.3 494.5 403.9 493.1 403C491 401.6 494.3 406.2 494.2 406.4C492.3 407.5 490.2 405.3 493.3 409.9C493.6 410.4 494 411 494.5 411.7C493.9 411.3 493.2 410.8 492.5 410.4C491.3 409.6 490.1 408.8 488.9 408C489.8 409.3 490.4 410.4 490.9 411.5C492.3 414.5 492.1 416.5 492.5 419.8C494.4 414.1 494.6 419.8 498.9 422.7C501.1 424.1 502.5 415.5 502 413.1C502 413.1 502 413.1 502.1 413.1ZM611 505.4C609.8 506.5 608.8 507.8 607.8 509C606.5 509.4 605.3 509.8 604 510.2C603.7 509.5 603.4 508.8 603 508.1C601.3 508.4 602.2 509.2 601.7 509.4C601.7 509.4 601.7 509.4 601.7 509.4C595 512.6 592.2 513.3 586.4 512.4C586.9 514.6 587.4 516.8 588 519C589.2 518.5 590.3 518 591.5 517.5C591.8 516.1 592.2 514.8 592.5 513.4C594.1 513.7 595.6 514 597.2 514.2C598.2 513.5 599.5 512.6 600.3 512C607.6 516.6 593.7 515.9 594.3 518.5C594.7 520.1 607.4 516.5 609 515.1C609.3 514.9 605.4 510.8 610.7 512.2C611.7 512.5 613.1 522.4 617.1 513.9C617.9 512.7 614.9 506.3 611 505.4ZM565.5 510.7C568.3 514.1 564.1 514 560.5 513C557 512 554 510.4 558 514.5C554.3 516.5 554.5 516.6 557.1 520.1C557.4 520.4 554.8 520.6 555 520.7C557.8 523.2 562 523 561.7 525.6C562.7 525.6 563.6 525.5 564.6 525.5C560.9 522.6 567.2 521.5 569.2 519.3C570.2 518.3 568 518 568.8 517.2C569 516.9 572.1 517.4 572.2 516.5C572.3 514.4 570.2 511.9 567.5 510.4C567.5 510.4 567.5 510.4 567.5 510.4C566.8 510.5 566.1 510.6 565.5 510.7ZM720.9 537.5C720.9 538.3 721.1 539 721.4 539.7C722 541.5 722.9 542.7 720.4 542.9C719.4 543 717.9 542.9 715.7 542.6C716 543.5 716.2 544.3 716.5 545.1C717.5 545.4 718.5 545.6 719.5 545.9C720.1 546.1 720.7 546.2 721.3 546.4C729.2 537.6 734.7 551.7 731.1 542.8C730.7 541.8 726.7 541.6 731 540.6C731 540.6 731 540.6 731 540.6C726.1 539.8 724.8 540.6 721.8 538.3C721.5 538 721.2 537.8 720.9 537.5ZM685.6 529C671.3 532.3 700.8 538.4 696.6 534.9C696.3 534.6 683.5 532.2 685.6 529ZM783.6 551C778.2 549.2 776.7 553.1 776.9 554.7C777 556.3 781.2 555.9 781.6 556.3C782.9 557.5 779.5 557 781.2 558.6C781.7 559.1 788.7 562.4 790.7 563.2C790.9 563.3 791.1 563.3 791.2 563.3C793.9 563.2 791.4 558.8 792.2 558.7C794.9 558.2 797.3 560.8 798.5 559.3C801.1 556.1 794.2 558.1 793.2 557.9C792.9 557.8 792.6 557.7 792.4 557.6C790.4 556.7 791 555 789.1 554.1C787.1 553 785.4 553.3 783.6 552.6C782.9 552.3 783.9 551.1 783.6 551ZM763.3 554.2C769.8 552.8 757 545.7 755.1 546C749.8 546.8 760.2 554.9 763.3 554.2ZM583.2 519C587.9 515.8 575.7 516.5 572.5 517.4C573.1 518.4 581.5 520.3 583.2 519ZM628.8 507.7C623.8 507.2 629 513.6 633 514.6C636.2 512 633.8 512 631.2 511.2C628.6 510.5 632.7 508.1 628.8 507.7ZM840.5 575.9C839.5 575.1 822.5 570.6 831.1 575.7C831.8 576 842.9 581 843.9 581.1C846 581.1 843 577.3 840.5 575.9ZM653.3 509.4C650 511.3 647.5 510.6 648.8 514.5C648.8 514.5 648.8 514.5 648.8 514.5C642.2 513.6 643.8 506.9 642.3 506.6C637.3 505.8 640.6 511.8 637.1 512.5C644.6 513 641.7 515.7 646.9 517.4C648.1 517.8 653.4 517.4 654.5 516.4C655.6 515.5 654.2 511.1 653.3 509.4ZM861.9 588.5C861.6 588.2 861.4 588 861.2 587.8C857.1 584.5 851.1 585.5 857 590.3C857.5 590.8 858.2 591.1 858.8 591.3C861.4 592.1 863.8 590.4 861.9 588.5ZM419.8 303.3C419.5 304.8 419.3 306.3 419.1 307.9C417.4 306.6 415.7 305.3 413.9 304C415.4 304.9 416.9 305.8 418.3 306.7C415.8 303.6 416.1 300.7 419.8 303.3C419.8 303.3 419.8 303.3 419.8 303.3ZM302.4 221.6C300.9 220.1 296.8 222.9 297.2 223.3C300 226.1 304.5 223.7 302.4 221.6ZM574.2 509.2C568.7 509.2 572.8 515 576.7 514.8C574.3 514 577.5 509.1 574.2 509.2ZM352.4 237.6C352.8 238.4 353 239.2 353.4 240C351.8 238.2 351.7 237.6 352.4 237.6ZM840.3 569.9C839.5 569 832.4 565.3 831.2 565.5C828.7 565.7 833 571.1 836.7 571.7C837.1 571.8 841.1 570.8 840.3 569.9C840.3 569.9 840.3 569.9 840.3 569.9ZM415 295.3C415 295.4 415 295.4 414.9 295.4C414.9 295.4 415 295.4 415 295.3ZM232.5 99.3C232.5 99.4 232.4 99.4 232.4 99.5C232.4 99.4 232.5 99.3 232.5 99.3ZM790.5 546.1C789.6 539.9 783.1 541.2 786.8 545.2C787 545.4 789.9 545.9 790.5 546.1Z" fill="#001FE5"/>
</svg>
