<svg width="497" height="435" viewBox="54 20 497 435" fill="none" xmlns="http://www.w3.org/2000/svg">
<path d="M192.552 225.741C188.539 230.889 184.503 236.228 180.47 241.673C168.752 256.6 162.004 275.304 151.968 295.5C150.405 298.684 149.023 297.739 148.413 298.563C148.203 298.844 148.035 299.129 147.902 299.414C147.052 301.226 147.808 303.125 147.027 304.575C142.667 312.696 138.98 320.58 134.832 328.757C130.567 337.194 127.593 331.102 125.169 333.642C120.431 338.621 128.696 336.166 129.101 339.07C125.888 345.698 122.369 352.282 118.877 358.823C118.987 356.925 119.116 355.019 119.278 353.118C117.92 356.039 115.21 359.904 115.658 354.256C114.758 355.176 113.816 355.985 112.914 356.941C115.029 358.181 113.037 363.528 114.172 364.556C115.306 365.585 116.219 362.497 116.329 362.561C117.902 363.444 110.647 374.662 110.102 375.474C108.663 377.588 106.706 374.418 106.076 376.471C105.003 379.979 111.588 380.055 102.177 381.567C103.873 384.418 102.554 384.014 101.429 386.294C101.283 386.592 102.799 386.931 102.782 387.081C102.419 390.994 100.867 387.246 100.716 387.206C98.1637 386.523 97.7132 390.733 97.1524 391.448C94.5285 394.771 92.198 397.764 90.0476 400.76L90.1159 400.585C86.6813 405.648 83.7697 410.632 80.8504 417.107C79.8434 419.358 78.1608 426.759 76.7637 428.906C75.4107 430.994 74.1848 429.037 72.8503 429.836C76.1595 433.346 75.76 436.286 70.0665 438.695C70.0239 438.754 69.8695 438.908 69.8218 438.963C69.7919 438.971 69.7619 438.979 69.7317 438.987C70.641 442.695 68.9318 440.753 66.555 443.391C64.5645 445.57 62.5533 451.5 58.263 450.117C61.3299 448.614 60.1903 447.432 62.9004 444.506C63.3443 443.978 66.8972 441.667 69.2916 438.436C69.3306 438.391 69.4567 438.265 69.4915 438.216C71.3842 435.189 71.7049 432.196 70.0925 431.946C68.3883 431.616 67.4901 435.943 67.0039 435.866C66.7265 435.805 66.4824 435.69 66.2713 435.537L66.322 435.481C66.2525 435.42 66.1875 435.355 66.1268 435.287L66.0596 435.361C64.9564 434.206 64.7769 432.175 66.0505 431.258C66.154 431.847 66.1978 432.515 66.229 433.145C70.572 430.538 60.9198 429.093 69.5922 429.527C70.6588 429.542 71.5177 430.118 72.773 429.848C72.4423 429.536 71.1019 429.933 71.2431 429.145C71.394 428.334 73.8309 427.74 72.3484 426.866C70.1874 425.633 69.8332 428.973 69.5825 429.137C69.5951 429.146 69.6076 429.154 69.6202 429.163C67.5537 430.537 69.2232 426.47 69.0705 426.158C68.1757 424.284 66.7182 424.719 66.3023 422.341C66.0622 420.996 67.5555 418.326 67.7347 417.196C67.9108 416.062 66.1945 417.272 66.2281 416.48C66.2701 415.666 67.4207 415.143 67.468 414.195C67.4789 413.804 66.2509 413.358 66.2724 413.172C66.5073 411.127 68.58 413.331 69.059 411.588C69.3635 410.468 68.3548 405.942 66.7136 408.17C66.9115 406.895 67.182 405.624 67.4358 404.358C66.7847 404.99 66.2539 405.655 65.5415 406.253C66.9736 404.204 65.2618 402.399 65.6387 400.917C66.0142 399.44 69.0163 399.07 68.3639 397.081C67.0111 392.753 65.1133 401.496 64.2732 402.322C63.9441 402.644 62.5373 400.408 62.5732 400.14C62.7341 398.96 64.5841 398.303 64.8365 397.436C65.4691 395.206 64.9514 393.261 64.9517 391.156C64.9911 391.07 65.0818 390.799 65.1234 390.714C65.13 390.045 65.1954 389.355 65.3816 388.628C67.8918 378.766 71.5893 366.742 74.8097 357.735C76.0067 354.39 78.8856 353.25 79.4363 351.744C80.7181 348.236 79.0989 347.066 80.247 344.011C81.9514 339.459 86.1417 333.785 88.0419 330.18C89.3542 327.685 88.6015 324.614 88.8426 323.92C92.1421 314.285 97.033 302.881 100.405 295.079C101.984 291.421 104.693 290.518 104.973 289.728C106.171 286.366 104.143 286.486 105.485 283.926C106.22 282.522 107.927 282.959 108.074 282.798C108.448 282.373 108.548 281.97 108.515 281.576C108.435 280.625 107.581 279.724 107.935 278.813C110.832 271.358 115.274 264.934 118.822 257.556C119.083 257.017 119.976 257.478 120.087 257.106C120.535 255.516 118.79 255.539 119.404 253.909C120.683 250.506 122.544 247.112 124.533 243.54C124.732 243.183 125.969 243.59 126.385 242.761C126.8 241.937 126.036 240.736 126.785 239.445C128.754 236.053 131.952 233.327 134.217 229.792C134.59 229.208 133.726 227.652 134.308 226.769C136.118 223.995 140.007 220.834 141.636 218.687C142.676 217.301 143.675 215.941 144.664 214.578C148.448 209.346 151.743 204.123 155.602 199.184C156.742 197.732 158.867 197.362 159.478 196.645C160.875 195 158.801 195.426 160.148 193.721C171.209 179.8 183.008 166.522 195.663 152.869C200.821 147.483 205.106 140.633 213.878 134.495C213.959 134.443 214.04 134.392 214.122 134.341C216.463 132.881 217.984 134.106 219.627 132.965C222.57 130.919 221.737 128.554 224.799 126.157C227.263 124.239 231.578 124.25 234.244 122.355C236.911 120.465 236.955 117.67 240.084 115.438C242.669 113.601 247.033 112.293 249.992 110.48C254.658 107.608 259.467 104.887 264.437 102.367C287.455 90.5474 312.675 82.7315 337.994 79.5366C348.797 78.1421 360.604 76.0615 371.817 77.0728C371.962 77.0858 372.063 77.1426 372.137 77.2287C372.591 77.7731 372.024 79.4732 374.76 78.747C376.439 78.2966 378.639 76.0885 382.641 75.5545C406.313 72.2383 431.547 75.0864 450.23 67.2034C452.52 66.2562 454.745 65.1336 456.916 63.8649C483.936 48.3983 506.808 19.94 542.757 24.8475C544.685 25.0877 546.716 30.4358 546.695 32.2923C545.38 31.7138 544.023 30.9122 542.616 30.2161C545.133 36.9119 544.357 35.2351 540.446 36.7156C538.023 37.6331 541.294 39.2567 540.519 40.6806C539.529 42.5123 534.034 49.6467 533.104 44.7923C533.053 45.7546 533.024 46.6656 532.983 47.6027C528.114 51.1857 523.624 55.0989 519.168 59.1861C518.398 59.895 519.106 61.1821 518.297 61.9132C516.148 63.874 513.753 64.127 511.267 65.707C509.951 66.5443 510.555 68.1532 508.715 69.0669C506.828 70.0043 505.773 67.9707 504.502 71.5359C507.532 73.1389 499.277 75.3565 496.745 76.9185C496.381 77.1443 494.498 81.0963 492.669 81.724C490.847 82.3582 487.539 82.2257 485.331 84.3914C484.297 85.4072 484.441 87.5849 483.142 88.3545C482.226 88.8965 480.305 87.8456 479.069 88.3581C477.843 88.87 475.858 91.4288 475.381 91.6753C473.69 92.5686 475.068 90.5427 473.862 91.0325C472.568 91.5617 471.234 92.0802 469.853 92.6136C464.703 94.6305 459.126 96.4393 454.399 98.5849C453.649 98.9238 455.167 100.005 455.08 100.083C450.24 103.44 452.546 100.721 450.751 99.8637C449.016 99.1177 439.129 102.119 439.532 104.593C438.581 101.499 436.824 104.349 436.244 104.549C434.041 105.321 433.991 102.497 431.97 103.713C431.22 104.156 433.093 105.757 432.219 105.846C430.042 106.066 427.693 103.365 424.867 103.458C424.191 103.477 424.161 104.845 422.955 104.962C421.747 105.085 416.577 104.066 419.218 106.604C415.923 104.713 415.468 106.028 411.989 106.361C411.098 106.443 409.742 104.407 407.946 105.282C407.334 105.578 407.582 107.66 406.642 107.779C404.478 108.058 402.208 106.116 399.483 106.317C394.363 106.69 389.118 108.773 383.788 108.816C382.345 108.826 382.482 106.689 380.383 106.884C380.053 106.921 377.796 109.01 376.317 109.01C376.207 109.01 376.04 108.998 375.828 108.978C374.342 108.832 370.757 108.27 369.945 108.286C368.445 108.312 368.453 110.368 367.603 110.078C365.112 109.253 366.565 106.027 364.334 110.478C363.116 108.35 361.48 108.816 360.554 106.122C360.052 109.297 358.371 106.565 356.672 107.87C354.993 109.173 354.429 115.291 352.952 109.052C352.229 109.955 348.779 111.895 348.2 112.101C346.43 112.698 347.085 110.782 345.761 111.267C345.528 111.351 346.002 112.491 344.443 112.663C343.4 112.757 336.027 114.174 335.555 114.125C330.142 113.363 338.043 112.353 338.872 110.87C339.133 111.168 339.392 111.467 339.666 111.759C342.02 111.872 340.213 109.444 339.063 109.028C337.915 108.611 336.267 110.196 335.233 109.5C334.72 109.149 334.291 105.888 335.669 106.003C334.075 105.306 335.751 103.865 335.008 103.052C334.182 102.147 327.875 103.213 328.246 104.994C329.43 104.786 330.837 104.406 332.042 104.219C334.208 106.961 331.966 118.396 326.904 115.225C323.166 112.96 327.528 109.313 321.031 113.649C322.149 113.488 323.149 113.535 324.185 113.412C324.862 115.668 322.609 113.565 321.969 114.505C321.666 114.961 324.516 115.95 322.542 117.029C319.872 114.246 319.317 117.889 316.318 118.772C316.99 117.959 317.677 117.149 318.375 116.337C312.523 115.415 324.424 111.304 313.908 112.794C315.098 112.342 316.324 112.032 317.517 111.537C316.597 110.507 316.607 106.749 315.868 106.156C313.896 104.607 312.102 106.367 310.312 106.706C309.533 106.856 309.728 105.779 309.663 105.792C308.594 105.993 309.22 107.304 308.334 107.664C307.225 108.109 303.493 107.811 303.003 108.14C301.735 108.973 304.914 110.927 304.834 111.176C304.376 112.758 302.242 112.256 302.896 113.93C306.794 111.296 319.608 109.271 309.312 115.382C313.199 117.244 313.404 121.328 309.257 122.943C305.825 124.309 307.604 122.062 305.222 120.982C304.923 120.836 299.897 121.65 300.076 122.919C299.323 120.144 296.923 118.299 296.986 115.141C296.991 114.676 299.051 114.144 297.575 112.139C296.834 111.13 294.959 109.032 294.619 107.541C294.549 108.685 294.508 109.962 294.453 111.152C291.533 112.528 290.715 111.629 288.356 110.41C288.729 111.149 291.473 113.806 288.788 113.702C288.647 113.689 288.1 112.566 286.706 112.447C283.876 112.229 283.218 112.085 283.725 107.961C279.515 111.879 276.884 108.576 272.28 111.897C275.187 115.74 276.439 113.885 280.736 111.133C281.36 112.082 281.872 113.064 282.503 114.023C275.433 114.224 278.509 113.223 275.981 116.778C275.36 117.644 270.688 119.114 273.473 121.314C274.123 121.829 276.821 120.528 276.98 121.741C277.005 121.916 275.18 123.142 274.168 123.636C273.864 123.783 273.63 123.865 273.534 123.833C268.319 122.188 273.717 116.619 264.2 122.845C263.941 123.023 264.466 124.286 264.019 124.731C263.182 125.564 262.43 124.174 261.704 124.971C260.972 125.772 260.764 128.298 258.485 127.312C254.281 125.552 259.141 120.491 262.699 120.829C261.587 115.903 242.638 126.491 241.882 127.708C237.928 132.272 245.521 126.279 246.641 127.156C247.106 127.518 250.605 133.52 250.341 128.421C250.275 126.903 246.796 126.929 247.955 125.376C249.127 123.821 249.559 125.949 249.743 126.005C250.375 126.198 251.64 124.582 252.001 124.711C257.475 126.665 260.47 132.596 251.247 126.57C250.511 129.578 256.56 130.148 255.02 132.794C253.194 135.986 249.568 134.506 249.139 134.6C244.121 135.737 251.31 136.681 245.533 138.594C242.316 139.689 248.033 133.313 241.842 137.676C236.699 141.382 240.453 140.839 242.103 144.137C242.484 144.914 240.251 147.673 243.887 144.788C243.468 143.921 242.98 142.735 242.744 141.836C244.086 141.783 248.279 144.754 248.866 144.576C251.742 143.676 250.314 141.654 253.31 143.225C250.58 141.162 253.296 141.736 253.577 140.775C254.664 137.211 251.068 138.269 258.082 137.825C256.627 136.94 255.234 136.057 253.783 135.186C254.408 134.752 255.045 134.314 255.674 133.887C258.33 136.147 261.553 133.828 260.085 138.491C264.28 137.171 265.443 135.759 265.074 133.039C265.005 132.521 265.484 132.043 266.144 131.643C265.68 131.072 264.475 129.187 264.456 128.888C264.324 126.239 267.745 129.154 267.95 130.83C268.464 130.652 268.881 130.541 269.032 130.507C269.986 130.301 268.984 132.415 269.887 132.508C270.179 132.534 272.41 131.078 272.713 131.583C274.627 134.819 269.625 134.193 278.229 132.511C278.249 132.508 278.269 132.504 278.288 132.5C278.163 132.175 278.016 131.908 277.852 131.686C276.411 129.729 273.655 131.332 273.107 128.003C272.71 125.501 274.264 126.023 275.096 125.663C275.593 125.448 275.838 124.912 275.279 123.211C275.776 123.845 276.121 124.405 276.637 125.151C279.1 121.775 280.752 125.4 282.093 125.771C284.69 126.478 293.64 122.595 284.205 122.725C285.268 121.911 286.428 121.267 287.512 120.509C290.413 127.019 288.647 124.618 294.718 123.478C296.061 123.234 297.533 126.025 297.498 122.089C298.566 125.569 301.524 122.193 302.034 122.494C305.129 124.457 298.399 131.041 295.113 125.438C294.626 128.301 293.447 125.202 292.073 126.205C290.077 127.669 290.038 128.376 286.488 127.191C285.249 131.389 297.1 124.578 291.181 131.853C289.741 133.648 286.081 136.225 281.362 139.358C268.153 147.769 247.818 163.428 239.367 170.395C239.286 170.502 239.06 170.718 238.865 170.914C227.81 182.317 220.201 192.762 208.463 206.259C207.257 207.626 198.836 218.478 197.545 213.766C197.348 213.095 199.952 207.498 194.286 209.507C196.372 209.865 195.417 212.947 195.406 213.272C195.225 220.546 198.149 218.59 192.552 225.741ZM147.554 226.241C155.83 216.374 148.142 222.427 144.901 216.669C143.88 218.008 142.855 219.382 141.844 220.775C142.411 220.627 142.976 220.484 143.547 220.338C143.548 220.337 143.549 220.335 143.55 220.333C144.861 222.327 146.208 224.279 147.554 226.241ZM62.396 408.77C61.8237 408.043 61.2355 407.353 60.6922 406.596C61.4871 405.177 62.2653 403.787 63.0601 402.364C63.495 402.735 63.9388 403.1 64.3747 403.468C63.7018 405.2 62.9977 407.009 62.396 408.77ZM263.875 119.254C266.965 120.172 265.04 116.734 268.663 116.991C267.078 114.535 265.466 112.162 263.846 109.757C261.784 111.227 261.775 112.459 259.062 113.044C259.766 113.73 260.475 114.421 261.167 115.121C261.47 114.743 261.789 114.328 262.095 113.978C263.85 116.009 260.301 118.238 263.871 119.263C263.872 119.26 263.874 119.257 263.875 119.254ZM285.465 108.469C286.778 108.351 291.952 107.942 292.182 106.597C293.004 101.934 280.495 109.351 289.123 102.274C288.882 101.755 288.735 101.212 288.542 100.681C286.642 101.161 284.766 101.684 282.885 102.243C283.797 104.304 284.538 106.401 285.465 108.469ZM174.782 190.702C176.193 189.446 180.554 181.194 176.672 181.836C175.516 182.042 175.772 187.519 174.679 188.607C173.969 189.312 173.113 187.163 172.438 189.166C173.184 189.661 173.984 190.243 174.781 190.694C174.781 190.696 174.782 190.699 174.782 190.702ZM181.677 200.869C182.606 199.149 183.519 197.306 184.447 195.57C181.776 195.193 181.116 198.348 178.51 196.418C178.652 195.853 178.805 195.277 178.956 194.703C179.767 194.829 180.574 194.963 181.378 195.098C181.081 192.682 179.746 192.926 182.15 190.806C177.158 189.165 174.878 187.78 175.315 195.105C173.892 192.641 166.557 187.93 169.472 194.178C170.012 195.338 172.09 193.984 172.249 194.079C174.245 195.227 174.555 197.153 176.471 198.2C177.337 198.674 178.22 197.557 179.401 198.244C179.973 198.582 180.586 200.809 181.677 200.869ZM170.254 196.667C169.564 195.325 165.696 194.921 165.09 196.747C164.146 199.586 169.334 198.057 170.254 196.667ZM62.3951 408.781C62.3954 408.778 62.3957 408.774 62.396 408.77C62.3982 408.773 62.4004 408.776 62.4025 408.778C62.4 408.779 62.3976 408.78 62.3951 408.781ZM278.802 109.428C279.735 107.769 281.874 107.094 281.029 105.428C281.844 105.495 282.667 105.557 283.487 105.629C283.276 105.11 283.059 104.593 282.85 104.08C280.652 104.566 278.474 105.071 276.276 105.608C277.112 106.881 277.928 108.169 278.802 109.428ZM301.623 102.468C304.28 101.827 301.339 100.099 301.544 98.7515C301.756 97.3995 304.424 97.6227 303.632 96.0313C302.041 96.4427 300.393 96.8858 298.778 97.3408C299.782 99.0228 300.666 100.781 301.628 102.467C301.627 102.467 301.625 102.468 301.623 102.468ZM121.828 271.231C123.062 269.807 124.523 271.278 123.903 267.101C123.902 267.104 123.901 267.106 123.9 267.108C121.078 269.558 118.034 272.937 117.922 276.936C120.696 275.729 119.903 273.448 121.828 271.231ZM255.379 117.258C255.407 118.98 259.282 118.351 259.361 116.716C259.497 114.047 255.357 114.614 255.379 117.258ZM105.429 343.334C108.737 347.663 115.604 344.916 115.579 339.046C115.574 338.538 112.845 341.184 112.394 339.875C112.351 339.744 113.193 338.016 112.772 337.324C112.349 336.632 110.748 336.505 110.458 335.539C109.951 333.85 113.061 331.794 112.1 330.288C111.971 330.087 109.349 331.062 109.231 331.144C107.328 332.489 109.06 335.262 108.959 335.551C108.439 337.031 106.601 336.009 105.994 336.185C104.854 336.517 105.201 338.087 105.102 338.146C102.495 339.634 105.068 334.825 104.657 333.854C103.543 331.242 101.086 332.212 101.864 327.381C101.937 326.927 104.142 321.994 99.3496 327.361C100.029 313.136 94.1826 332.49 94.3503 334.916C94.4237 336.036 96.849 335.396 97.4429 336.304C98.8022 338.376 98.2283 340.701 100.98 341.615C106.771 343.526 104.283 339.129 106.052 337.545C107.185 338.261 108.34 338.835 109.373 339.716C108.015 338.456 105.176 343.014 105.418 343.329C105.421 343.331 105.425 343.332 105.429 343.334ZM112.131 309.52C115.007 307.471 111.385 306.179 114.5 304.5C112.304 300.896 110.605 305.408 110.213 305.831C108.403 307.842 104.989 306.296 105.018 309.159C107.411 309.201 109.758 309.412 112.131 309.52ZM100.516 332.942C99.4971 330.34 98.1419 333.67 97.7441 333.66C93.4928 333.608 98.349 323.975 100.516 332.942ZM188.234 186.559C188.993 185.861 187.152 185.159 187.311 184.117C187.453 183.085 190.699 181.725 189.758 181.047C188.836 180.335 182.829 182.763 186.052 177.963C185.431 177.687 185.103 177.322 184.595 177.012C183.562 178.197 182.498 179.41 181.476 180.599C183.473 181.137 185.531 181.756 187.46 182.281C188.019 183.93 186.255 183.054 186.222 183.094C186.223 183.095 186.225 183.097 186.226 183.098C185.289 184.442 186.523 188.144 188.234 186.559ZM135.738 249.524C139.774 251.868 136.209 247.341 136.183 246.133C136.144 244.943 138.343 244.466 136.316 244.015C134.286 244.891 135.273 249.282 135.743 249.526C135.741 249.525 135.739 249.525 135.738 249.524ZM118.637 294.531C118.609 291.801 117.363 291.618 119.881 289.377C118.804 289.027 117.704 288.668 116.642 288.326C115.627 290.54 118.658 291.766 116.321 293.799C115.933 294.141 113.952 292.161 113.862 294.448C115.386 294.445 117.056 294.491 118.637 294.531ZM119.934 281.441C118.909 284.137 126.287 289.942 124.71 283.434C124.47 282.469 120.69 279.435 119.934 281.441ZM171.578 207.406C174.836 203.71 170.215 207.177 168.324 207.322C174.561 197.624 167.822 208.56 163.45 206.611C163.631 208.531 164.406 212.472 166.841 210.669C167.853 209.922 166.488 209.417 166.537 209.363C168.176 207.827 169.814 209.412 171.578 207.406ZM110.29 314.4C110.299 314.203 108.738 313.853 108.68 313.188C108.624 312.522 110.158 311.734 109.325 311.227C108.48 310.733 106.741 312.887 107.067 313.93C107.401 314.971 110.189 316.182 110.29 314.4ZM121.32 298.631C121.262 295.952 114.358 297.257 114.157 297.789C112.557 302.21 119.698 297.755 121.32 298.631ZM172.347 222.417C173.609 215.98 166.951 216.211 162.246 217.305C162.442 218.071 162.631 218.849 162.827 219.608C161.173 215.551 160.599 210.146 157.913 219.078C161.524 215.82 159.9 219.617 160.05 219.773C165.261 224.393 166.964 216.878 172.344 222.422C172.345 222.42 172.346 222.419 172.347 222.417ZM105.648 321.105C104.662 323.494 103.181 330.127 107.181 328.423C106.67 325.978 106.15 323.559 105.648 321.105ZM236.01 152.509C238.708 152.731 240.249 151.622 242.287 150.093C238.971 149.307 240.044 148.222 240.346 147.268C240.8 145.834 238.476 147.512 238.373 147.379C237.064 145.376 238.361 144.022 234.947 146.454C235.324 145.176 235.69 143.902 236.08 142.631C233.375 144.356 231.861 143.515 229.089 143.127C233.4 145.801 229.57 144.916 228.991 148.172C228.707 149.797 234.644 152.383 236.016 152.504C236.014 152.506 236.012 152.507 236.01 152.509ZM176.807 218.2C176.515 217.208 175.959 216.075 175.56 215.026C175.886 214.463 176.22 213.907 176.543 213.349C177.176 213.746 177.827 214.175 178.445 214.544C179.134 214.019 178.119 213.636 178.197 213.38C178.2 213.383 178.203 213.385 178.206 213.388C179.348 209.728 180.378 208.685 183.934 207.919C182.158 206.495 180.382 205.071 178.606 203.648C178.379 204.278 178.143 204.912 177.909 205.544C178.65 206.576 179.403 207.595 180.151 208.619C179.171 208.765 178.197 208.915 177.212 209.071C177.192 209.804 177.108 210.656 177.137 211.311C170.335 209.657 177.851 207.119 175.821 205.438C174.517 204.341 170.409 209.654 170.729 211.155C170.782 211.366 175.393 213.16 171.951 213.553C171.411 213.613 163.25 207.408 168.159 214.613C168.856 215.636 174.698 218.491 176.807 218.2ZM194.447 201.472C187.011 200.166 201.128 194.014 193.193 195.118C191.963 191.89 191.8 192.146 188.642 191.759C188.361 191.722 188.488 190.277 188.342 190.288C186.175 190.582 185.529 192.592 183.458 190.889C183.291 191.316 183.127 191.714 182.958 192.144C186.07 192.34 185.523 195.671 186.475 197.875C186.904 198.876 187.865 198.172 188.251 199.034C188.392 199.348 186.891 200.211 187.533 200.824C188.997 202.194 191.732 203.117 193.955 202.733C193.957 202.734 193.958 202.736 193.96 202.737C194.134 202.318 194.278 201.892 194.447 201.472ZM145.581 263.08C142.034 262.125 140 264.047 140.468 258.814C139.718 258.733 138.97 258.664 138.218 258.588C137.916 259.39 137.644 260.131 137.337 260.938C145.999 267.663 133.127 266.931 141.25 267.323C142.136 267.361 142.097 265.211 143.343 267.884C143.346 267.882 143.349 267.881 143.352 267.879C143.835 265.142 142.815 264.283 145.581 263.08ZM151.383 245.95C147.868 236.647 143.429 251.566 146.506 250.269C146.738 250.15 148.397 243.685 151.383 245.95ZM136.186 294.07C137.489 291.508 133.794 289.689 132.333 289.327C130.866 288.967 131.43 291.367 131.108 291.51C130.06 291.953 130.326 290.129 128.916 290.68C128.886 290.692 128.845 290.719 128.793 290.76C128.054 291.304 125.123 294.732 125.189 294.998C125.574 296.553 129.426 296.245 129.634 296.734C130.312 298.342 128.084 299.015 129.593 300.066C132.828 302.273 130.298 297.997 130.449 297.498C130.894 296.05 132.819 297.056 133.663 296.234C134.522 295.379 134.143 294.411 134.678 293.6C134.736 293.513 134.906 293.544 135.112 293.622C135.266 293.679 135.44 293.763 135.603 293.844C135.823 293.953 136.022 294.055 136.121 294.079C136.155 294.086 136.178 294.085 136.186 294.07ZM132.088 281.998C133.741 285.934 139.74 280.807 139.427 279.711C138.456 276.564 131.316 280.086 132.088 281.998ZM180.856 202.491C180.934 205.993 186.264 202.288 186.698 200.329C185.754 199.998 180.843 201.264 180.856 202.491ZM171.341 223.703C172.282 221.331 166.27 220.797 165.075 222.492C166.993 225.486 167.162 224.173 168.087 223.192C169.012 222.216 170.614 225.548 171.341 223.703ZM120.655 320.388C120.912 319.911 121.742 310.941 118.746 315.026C118.515 315.344 116.613 321.056 116.911 321.676C117.512 322.925 119.983 321.587 120.655 320.388ZM168.231 235.97C166.643 233.249 167.425 232.276 164.007 231.176C164.006 231.177 164.005 231.178 164.004 231.18C164.215 230.56 164.605 230.206 165.094 230.038C167.137 229.329 170.835 231.887 171.084 231.361C172.162 229.083 166.814 227.947 166.462 225.731C165.649 228.903 164.097 227.447 162.532 228.099C162.223 228.228 161.915 228.439 161.616 228.78C161.209 229.24 161.349 232.41 162.159 233.414C162.962 234.42 166.685 235.62 168.231 235.97ZM116.606 331.824C118.752 329.576 115.459 325.326 113.217 328.735C112.116 330.41 115.303 333.186 116.606 331.824ZM295.232 122.409C294.402 121.407 293.557 120.416 292.691 119.44C293.567 118.794 294.471 118.137 295.353 117.496C294.706 118.144 294.043 118.795 293.392 119.446C295.404 119.157 297.004 120.956 295.237 122.408C295.236 122.408 295.234 122.409 295.232 122.409ZM363.23 107.012C364.255 108.061 365.484 104.195 365.229 103.942C363.276 102.057 361.784 105.56 363.23 107.012ZM191.986 206.429C194.479 204.181 188.417 202.186 186.82 203.506C188.481 203.267 190.586 207.689 191.986 206.429ZM338.872 110.87C338.483 110.426 338.091 109.984 337.666 109.547C338.821 110.037 339.092 110.472 338.872 110.87ZM126.031 321.19C126.648 320.905 128.472 317.596 128.15 316.914C127.472 315.478 123.292 316.88 123.548 318.861C123.574 319.078 125.412 321.476 126.034 321.183C126.033 321.185 126.032 321.187 126.031 321.19ZM300.122 123.073C300.098 123.022 300.083 122.969 300.076 122.919C300.09 122.97 300.109 123.021 300.122 123.073ZM439.617 104.853C439.577 104.767 439.547 104.68 439.532 104.593C439.558 104.676 439.593 104.761 439.617 104.853ZM141.174 299.066C144.508 299.755 145.333 298.757 144.748 297.986C144.478 297.599 143.881 297.273 143.073 297.227C142.687 297.195 142.255 297.224 141.788 297.339C141.604 297.386 141.31 298.789 141.174 299.066Z" fill="#001FE5"/>
</svg>
